<mxfile host="app.diagrams.net" agent="Mozilla/5.0 (Windows NT 10.0; Win64; x64) AppleWebKit/537.36 (KHTML, like Gecko) Chrome/137.0.0.0 Safari/537.36" version="27.1.6">
  <diagram name="PÃ¡gina-1" id="mDDn51J49BWNb3NrObiy">
    <mxGraphModel grid="1" page="1" gridSize="10" guides="1" tooltips="1" connect="1" arrows="1" fold="1" pageScale="1" pageWidth="827" pageHeight="1169" math="0" shadow="0">
      <root>
        <mxCell id="0" />
        <mxCell id="1" parent="0" />
        <mxCell id="s-hoPEAsMdMOdURxk7sw-1" style="edgeStyle=orthogonalEdgeStyle;rounded=0;orthogonalLoop=1;jettySize=auto;html=1;endArrow=none;startFill=0;dashed=1;" edge="1" parent="1" source="gvLBgJIyw-T1FRaVCze4-27" target="s-hoPEAsMdMOdURxk7sw-7">
          <mxGeometry relative="1" as="geometry" />
        </mxCell>
        <mxCell id="s-hoPEAsMdMOdURxk7sw-2" value="Administrador" style="html=1;whiteSpace=wrap;" vertex="1" parent="1">
          <mxGeometry x="30" y="70" width="110" height="50" as="geometry" />
        </mxCell>
        <mxCell id="s-hoPEAsMdMOdURxk7sw-3" style="edgeStyle=orthogonalEdgeStyle;rounded=0;orthogonalLoop=1;jettySize=auto;html=1;endArrow=none;startFill=0;dashed=1;" edge="1" parent="1" source="gvLBgJIyw-T1FRaVCze4-32" target="s-hoPEAsMdMOdURxk7sw-8">
          <mxGeometry relative="1" as="geometry" />
        </mxCell>
        <mxCell id="s-hoPEAsMdMOdURxk7sw-4" value="Sistema&lt;span style=&quot;color: rgba(0, 0, 0, 0); font-family: monospace; font-size: 0px; text-align: start; text-wrap-mode: nowrap;&quot;&gt;%3CmxGraphModel%3E%3Croot%3E%3CmxCell%20id%3D%220%22%2F%3E%3CmxCell%20id%3D%221%22%20parent%3D%220%22%2F%3E%3CmxCell%20id%3D%222%22%20value%3D%22Usuario%22%20style%3D%22html%3D1%3BwhiteSpace%3Dwrap%3B%22%20vertex%3D%221%22%20parent%3D%221%22%3E%3CmxGeometry%20x%3D%2270%22%20y%3D%2240%22%20width%3D%22110%22%20height%3D%2250%22%20as%3D%22geometry%22%2F%3E%3C%2FmxCell%3E%3C%2Froot%3E%3C%2FmxGraphModel%3E&lt;/span&gt;" style="html=1;whiteSpace=wrap;" vertex="1" parent="1">
          <mxGeometry x="240" y="70" width="110" height="50" as="geometry" />
        </mxCell>
        <mxCell id="s-hoPEAsMdMOdURxk7sw-5" style="edgeStyle=orthogonalEdgeStyle;rounded=0;orthogonalLoop=1;jettySize=auto;html=1;endArrow=none;startFill=0;dashed=1;" edge="1" parent="1" source="gvLBgJIyw-T1FRaVCze4-18" target="s-hoPEAsMdMOdURxk7sw-9">
          <mxGeometry relative="1" as="geometry" />
        </mxCell>
        <mxCell id="s-hoPEAsMdMOdURxk7sw-6" value="Base de datos" style="html=1;whiteSpace=wrap;" vertex="1" parent="1">
          <mxGeometry x="450" y="70" width="110" height="50" as="geometry" />
        </mxCell>
        <mxCell id="s-hoPEAsMdMOdURxk7sw-7" value="Administrador" style="html=1;whiteSpace=wrap;" vertex="1" parent="1">
          <mxGeometry x="30" y="660" width="110" height="50" as="geometry" />
        </mxCell>
        <mxCell id="s-hoPEAsMdMOdURxk7sw-8" value="Sistema&lt;span style=&quot;color: rgba(0, 0, 0, 0); font-family: monospace; font-size: 0px; text-align: start; text-wrap-mode: nowrap;&quot;&gt;%3CmxGraphModel%3E%3Croot%3E%3CmxCell%20id%3D%220%22%2F%3E%3CmxCell%20id%3D%221%22%20parent%3D%220%22%2F%3E%3CmxCell%20id%3D%222%22%20value%3D%22Usuario%22%20style%3D%22html%3D1%3BwhiteSpace%3Dwrap%3B%22%20vertex%3D%221%22%20parent%3D%221%22%3E%3CmxGeometry%20x%3D%2270%22%20y%3D%2240%22%20width%3D%22110%22%20height%3D%2250%22%20as%3D%22geometry%22%2F%3E%3C%2FmxCell%3E%3C%2Froot%3E%3C%2FmxGraphModel%3E&lt;/span&gt;" style="html=1;whiteSpace=wrap;" vertex="1" parent="1">
          <mxGeometry x="240" y="660" width="110" height="50" as="geometry" />
        </mxCell>
        <mxCell id="s-hoPEAsMdMOdURxk7sw-9" value="Base de datos" style="html=1;whiteSpace=wrap;" vertex="1" parent="1">
          <mxGeometry x="450" y="660" width="110" height="50" as="geometry" />
        </mxCell>
        <mxCell id="s-hoPEAsMdMOdURxk7sw-19" value="1. Pulsar apartado &quot;Notificaciones&quot;" style="html=1;verticalAlign=bottom;endArrow=block;labelBackgroundColor=none;fontFamily=Verdana;fontSize=11;elbow=vertical;entryX=0;entryY=0.25;entryDx=0;entryDy=0;" edge="1" parent="1" target="s-hoPEAsMdMOdURxk7sw-42">
          <mxGeometry x="0.0015" relative="1" as="geometry">
            <mxPoint x="90" y="175" as="sourcePoint" />
            <mxPoint x="285" y="180" as="targetPoint" />
            <mxPoint as="offset" />
          </mxGeometry>
        </mxCell>
        <mxCell id="s-hoPEAsMdMOdURxk7sw-20" value="2. Mostrar apartado de notificaciones" style="html=1;verticalAlign=bottom;endArrow=open;labelBackgroundColor=none;fontFamily=Verdana;fontSize=10;edgeStyle=elbowEdgeStyle;elbow=vertical;" edge="1" parent="1">
          <mxGeometry relative="1" as="geometry">
            <mxPoint x="284" y="220" as="sourcePoint" />
            <mxPoint x="89" y="220" as="targetPoint" />
          </mxGeometry>
        </mxCell>
        <mxCell id="s-hoPEAsMdMOdURxk7sw-22" value="" style="html=1;verticalAlign=bottom;endArrow=block;labelBackgroundColor=none;fontFamily=Verdana;fontSize=10;elbow=vertical;entryX=0;entryY=0.25;entryDx=0;entryDy=0;" edge="1" parent="1" target="s-hoPEAsMdMOdURxk7sw-46">
          <mxGeometry x="0.0017" relative="1" as="geometry">
            <mxPoint x="90" y="265" as="sourcePoint" />
            <mxPoint x="284" y="270" as="targetPoint" />
            <mxPoint as="offset" />
          </mxGeometry>
        </mxCell>
        <mxCell id="s-hoPEAsMdMOdURxk7sw-23" value="4. Mostrar detalles de solicitud" style="html=1;verticalAlign=bottom;endArrow=open;labelBackgroundColor=none;fontFamily=Verdana;fontSize=11;edgeStyle=elbowEdgeStyle;elbow=horizontal;" edge="1" parent="1">
          <mxGeometry x="0.0012" relative="1" as="geometry">
            <mxPoint x="285" y="310" as="sourcePoint" />
            <mxPoint x="90" y="310" as="targetPoint" />
            <mxPoint as="offset" />
          </mxGeometry>
        </mxCell>
        <mxCell id="s-hoPEAsMdMOdURxk7sw-25" value="[Administrador rechaza solicitud]" style="text;html=1;strokeColor=none;fillColor=none;align=left;verticalAlign=middle;whiteSpace=wrap;rounded=0;fontFamily=Verdana;fontSize=11;fontStyle=0;" vertex="1" parent="1">
          <mxGeometry x="284" y="350" width="186" height="20" as="geometry" />
        </mxCell>
        <mxCell id="s-hoPEAsMdMOdURxk7sw-39" value="Cliente" style="html=1;whiteSpace=wrap;" vertex="1" parent="1">
          <mxGeometry x="610" y="660" width="110" height="50" as="geometry" />
        </mxCell>
        <mxCell id="s-hoPEAsMdMOdURxk7sw-40" value="Cliente" style="html=1;whiteSpace=wrap;" vertex="1" parent="1">
          <mxGeometry x="610" y="70" width="110" height="50" as="geometry" />
        </mxCell>
        <mxCell id="s-hoPEAsMdMOdURxk7sw-43" value="" style="edgeStyle=orthogonalEdgeStyle;rounded=0;orthogonalLoop=1;jettySize=auto;html=1;endArrow=none;startFill=0;dashed=1;" edge="1" parent="1" source="s-hoPEAsMdMOdURxk7sw-4" target="s-hoPEAsMdMOdURxk7sw-42">
          <mxGeometry relative="1" as="geometry">
            <mxPoint x="295" y="120" as="sourcePoint" />
            <mxPoint x="295" y="860" as="targetPoint" />
          </mxGeometry>
        </mxCell>
        <mxCell id="s-hoPEAsMdMOdURxk7sw-42" value="" style="rounded=0;whiteSpace=wrap;html=1;" vertex="1" parent="1">
          <mxGeometry x="292.5" y="170" width="5" height="20" as="geometry" />
        </mxCell>
        <mxCell id="s-hoPEAsMdMOdURxk7sw-45" value="" style="edgeStyle=orthogonalEdgeStyle;rounded=0;orthogonalLoop=1;jettySize=auto;html=1;endArrow=none;startFill=0;dashed=1;" edge="1" parent="1" source="s-hoPEAsMdMOdURxk7sw-2" target="s-hoPEAsMdMOdURxk7sw-44">
          <mxGeometry relative="1" as="geometry">
            <mxPoint x="85" y="120" as="sourcePoint" />
            <mxPoint x="85" y="860" as="targetPoint" />
          </mxGeometry>
        </mxCell>
        <mxCell id="s-hoPEAsMdMOdURxk7sw-44" value="" style="rounded=0;whiteSpace=wrap;html=1;" vertex="1" parent="1">
          <mxGeometry x="82.5" y="220" width="5" height="20" as="geometry" />
        </mxCell>
        <mxCell id="s-hoPEAsMdMOdURxk7sw-47" value="" style="edgeStyle=orthogonalEdgeStyle;rounded=0;orthogonalLoop=1;jettySize=auto;html=1;endArrow=none;startFill=0;dashed=1;" edge="1" parent="1" source="s-hoPEAsMdMOdURxk7sw-42" target="s-hoPEAsMdMOdURxk7sw-46">
          <mxGeometry relative="1" as="geometry">
            <mxPoint x="295" y="220" as="sourcePoint" />
            <mxPoint x="295" y="860" as="targetPoint" />
          </mxGeometry>
        </mxCell>
        <mxCell id="s-hoPEAsMdMOdURxk7sw-46" value="" style="rounded=0;whiteSpace=wrap;html=1;" vertex="1" parent="1">
          <mxGeometry x="292.5" y="260" width="5" height="20" as="geometry" />
        </mxCell>
        <mxCell id="s-hoPEAsMdMOdURxk7sw-49" value="" style="edgeStyle=orthogonalEdgeStyle;rounded=0;orthogonalLoop=1;jettySize=auto;html=1;endArrow=none;startFill=0;dashed=1;" edge="1" parent="1" source="s-hoPEAsMdMOdURxk7sw-44" target="s-hoPEAsMdMOdURxk7sw-48">
          <mxGeometry relative="1" as="geometry">
            <mxPoint x="85" y="290" as="sourcePoint" />
            <mxPoint x="85" y="860" as="targetPoint" />
          </mxGeometry>
        </mxCell>
        <mxCell id="s-hoPEAsMdMOdURxk7sw-48" value="" style="rounded=0;whiteSpace=wrap;html=1;" vertex="1" parent="1">
          <mxGeometry x="82.5" y="310" width="5" height="20" as="geometry" />
        </mxCell>
        <mxCell id="s-hoPEAsMdMOdURxk7sw-53" value="" style="edgeStyle=orthogonalEdgeStyle;rounded=0;orthogonalLoop=1;jettySize=auto;html=1;dashed=1;endArrow=none;startFill=0;" edge="1" parent="1" source="s-hoPEAsMdMOdURxk7sw-40">
          <mxGeometry relative="1" as="geometry">
            <mxPoint x="675" y="120" as="sourcePoint" />
            <mxPoint x="665" y="400" as="targetPoint" />
          </mxGeometry>
        </mxCell>
        <mxCell id="s-hoPEAsMdMOdURxk7sw-61" value="" style="edgeStyle=orthogonalEdgeStyle;rounded=0;orthogonalLoop=1;jettySize=auto;html=1;dashed=1;endArrow=none;startFill=0;entryX=0.5;entryY=0;entryDx=0;entryDy=0;" edge="1" parent="1" target="s-hoPEAsMdMOdURxk7sw-39">
          <mxGeometry relative="1" as="geometry">
            <mxPoint x="665" y="420" as="sourcePoint" />
            <mxPoint x="665.0344827586207" y="590" as="targetPoint" />
          </mxGeometry>
        </mxCell>
        <mxCell id="gvLBgJIyw-T1FRaVCze4-2" value="&lt;span style=&quot;font-family: Verdana; font-size: 10px; text-wrap-mode: nowrap;&quot;&gt;3. Seleccionar notificaciÃ³n&lt;/span&gt;&lt;div&gt;&lt;span style=&quot;font-family: Verdana; font-size: 10px; text-wrap-mode: nowrap;&quot;&gt;&amp;nbsp;solicitud de cancelaciÃ³n de evento&lt;/span&gt;&lt;/div&gt;" style="text;html=1;align=center;verticalAlign=middle;whiteSpace=wrap;rounded=0;" vertex="1" parent="1">
          <mxGeometry x="160" y="230" width="60" height="30" as="geometry" />
        </mxCell>
        <mxCell id="gvLBgJIyw-T1FRaVCze4-12" value="8. Pulsar botÃ³n &quot;Aceptar&quot;" style="html=1;verticalAlign=bottom;endArrow=block;labelBackgroundColor=none;fontFamily=Verdana;fontSize=11;edgeStyle=elbowEdgeStyle;elbow=vertical;" edge="1" parent="1">
          <mxGeometry relative="1" as="geometry">
            <mxPoint x="90" y="490.03" as="sourcePoint" />
            <mxPoint x="285" y="490.03" as="targetPoint" />
          </mxGeometry>
        </mxCell>
        <mxCell id="gvLBgJIyw-T1FRaVCze4-13" value="9. Enviar mensaje de Ã©xito a cliente" style="html=1;verticalAlign=bottom;endArrow=open;dashed=1;labelBackgroundColor=none;fontFamily=Verdana;fontSize=11;edgeStyle=elbowEdgeStyle;elbow=vertical;" edge="1" parent="1">
          <mxGeometry relative="1" as="geometry">
            <mxPoint x="295" y="510.03" as="sourcePoint" />
            <mxPoint x="660" y="510.03" as="targetPoint" />
          </mxGeometry>
        </mxCell>
        <mxCell id="gvLBgJIyw-T1FRaVCze4-14" value="10. Eliminar evento" style="html=1;verticalAlign=bottom;endArrow=block;labelBackgroundColor=none;fontFamily=Verdana;fontSize=11;elbow=vertical;entryX=0;entryY=0.25;entryDx=0;entryDy=0;" edge="1" parent="1" target="gvLBgJIyw-T1FRaVCze4-18">
          <mxGeometry relative="1" as="geometry">
            <mxPoint x="300" y="535" as="sourcePoint" />
            <mxPoint x="497.5" y="539.81" as="targetPoint" />
          </mxGeometry>
        </mxCell>
        <mxCell id="gvLBgJIyw-T1FRaVCze4-15" value="11. ConfirmaciÃ³n de eliminaciÃ³n" style="html=1;verticalAlign=bottom;endArrow=open;labelBackgroundColor=none;fontFamily=Verdana;fontSize=11;edgeStyle=elbowEdgeStyle;elbow=vertical;" edge="1" parent="1">
          <mxGeometry x="-0.025" relative="1" as="geometry">
            <mxPoint x="497.5" y="570.06" as="sourcePoint" />
            <mxPoint x="297.5" y="570.06" as="targetPoint" />
            <mxPoint as="offset" />
          </mxGeometry>
        </mxCell>
        <mxCell id="gvLBgJIyw-T1FRaVCze4-16" value="" style="rounded=0;whiteSpace=wrap;html=1;" vertex="1" parent="1">
          <mxGeometry x="292.5" y="490.03" width="5" height="20" as="geometry" />
        </mxCell>
        <mxCell id="gvLBgJIyw-T1FRaVCze4-17" value="" style="rounded=0;whiteSpace=wrap;html=1;" vertex="1" parent="1">
          <mxGeometry x="662.5" y="500.03" width="5" height="20" as="geometry" />
        </mxCell>
        <mxCell id="gvLBgJIyw-T1FRaVCze4-19" value="5. Pulsar botÃ³n &quot;Rechazar&quot;" style="html=1;verticalAlign=bottom;endArrow=block;labelBackgroundColor=none;fontFamily=Verdana;fontSize=11;edgeStyle=elbowEdgeStyle;elbow=vertical;" edge="1" parent="1">
          <mxGeometry x="0.0023" relative="1" as="geometry">
            <mxPoint x="90" y="395" as="sourcePoint" />
            <mxPoint x="285" y="395" as="targetPoint" />
            <mxPoint as="offset" />
          </mxGeometry>
        </mxCell>
        <mxCell id="gvLBgJIyw-T1FRaVCze4-20" value="6. Enviar mensaje de rechazo a cliente" style="html=1;verticalAlign=bottom;endArrow=open;dashed=1;labelBackgroundColor=none;fontFamily=Verdana;fontSize=11;edgeStyle=elbowEdgeStyle;elbow=vertical;" edge="1" parent="1">
          <mxGeometry relative="1" as="geometry">
            <mxPoint x="295" y="415" as="sourcePoint" />
            <mxPoint x="660" y="415" as="targetPoint" />
          </mxGeometry>
        </mxCell>
        <mxCell id="gvLBgJIyw-T1FRaVCze4-21" value="7. Mostrar mensaje de Ã©xito" style="html=1;verticalAlign=bottom;endArrow=open;dashed=1;labelBackgroundColor=none;fontFamily=Verdana;fontSize=11;edgeStyle=elbowEdgeStyle;elbow=vertical;" edge="1" parent="1">
          <mxGeometry relative="1" as="geometry">
            <mxPoint x="285" y="435" as="sourcePoint" />
            <mxPoint x="90" y="435" as="targetPoint" />
          </mxGeometry>
        </mxCell>
        <mxCell id="gvLBgJIyw-T1FRaVCze4-22" value="" style="rounded=0;whiteSpace=wrap;html=1;" vertex="1" parent="1">
          <mxGeometry x="292.5" y="390" width="5" height="25" as="geometry" />
        </mxCell>
        <mxCell id="gvLBgJIyw-T1FRaVCze4-23" value="" style="rounded=0;whiteSpace=wrap;html=1;" vertex="1" parent="1">
          <mxGeometry x="662.5" y="405" width="5" height="20" as="geometry" />
        </mxCell>
        <mxCell id="gvLBgJIyw-T1FRaVCze4-24" value="" style="rounded=0;whiteSpace=wrap;html=1;" vertex="1" parent="1">
          <mxGeometry x="82.5" y="425" width="5" height="20" as="geometry" />
        </mxCell>
        <mxCell id="gvLBgJIyw-T1FRaVCze4-25" value="frame" style="shape=umlFrame;whiteSpace=wrap;html=1;pointerEvents=0;" vertex="1" parent="1">
          <mxGeometry x="70" y="340" width="610" height="120" as="geometry" />
        </mxCell>
        <mxCell id="gvLBgJIyw-T1FRaVCze4-26" value="" style="html=1;verticalAlign=bottom;endArrow=open;labelBackgroundColor=none;fontFamily=Verdana;fontSize=11;edgeStyle=elbowEdgeStyle;elbow=vertical;dashed=1;entryX=1;entryY=0.25;entryDx=0;entryDy=0;" edge="1" parent="1" target="gvLBgJIyw-T1FRaVCze4-27">
          <mxGeometry x="-0.075" relative="1" as="geometry">
            <mxPoint x="292.5" y="595" as="sourcePoint" />
            <mxPoint x="92.5" y="595" as="targetPoint" />
            <mxPoint as="offset" />
          </mxGeometry>
        </mxCell>
        <mxCell id="gvLBgJIyw-T1FRaVCze4-28" value="" style="edgeStyle=orthogonalEdgeStyle;rounded=0;orthogonalLoop=1;jettySize=auto;html=1;endArrow=none;startFill=0;dashed=1;" edge="1" parent="1" source="s-hoPEAsMdMOdURxk7sw-48" target="gvLBgJIyw-T1FRaVCze4-27">
          <mxGeometry relative="1" as="geometry">
            <mxPoint x="85" y="330" as="sourcePoint" />
            <mxPoint x="85" y="720" as="targetPoint" />
          </mxGeometry>
        </mxCell>
        <mxCell id="gvLBgJIyw-T1FRaVCze4-27" value="" style="rounded=0;whiteSpace=wrap;html=1;" vertex="1" parent="1">
          <mxGeometry x="82.5" y="589" width="5" height="20" as="geometry" />
        </mxCell>
        <mxCell id="gvLBgJIyw-T1FRaVCze4-29" value="&lt;span style=&quot;font-family: Verdana; font-size: 11px; text-wrap-mode: nowrap;&quot;&gt;12. NotificaciÃ³n de Ã©xito:&amp;nbsp;&lt;/span&gt;&lt;div&gt;&lt;span style=&quot;font-family: Verdana; font-size: 11px; text-wrap-mode: nowrap;&quot;&gt;Evento cancelado correctamente&lt;/span&gt;&lt;/div&gt;" style="text;html=1;align=center;verticalAlign=middle;whiteSpace=wrap;rounded=0;" vertex="1" parent="1">
          <mxGeometry x="160" y="559" width="60" height="30" as="geometry" />
        </mxCell>
        <mxCell id="gvLBgJIyw-T1FRaVCze4-31" value="" style="edgeStyle=orthogonalEdgeStyle;rounded=0;orthogonalLoop=1;jettySize=auto;html=1;endArrow=none;startFill=0;dashed=1;" edge="1" parent="1" source="s-hoPEAsMdMOdURxk7sw-6" target="gvLBgJIyw-T1FRaVCze4-18">
          <mxGeometry relative="1" as="geometry">
            <mxPoint x="505" y="120" as="sourcePoint" />
            <mxPoint x="505" y="720" as="targetPoint" />
          </mxGeometry>
        </mxCell>
        <mxCell id="gvLBgJIyw-T1FRaVCze4-18" value="" style="rounded=0;whiteSpace=wrap;html=1;" vertex="1" parent="1">
          <mxGeometry x="502.5" y="530.03" width="5" height="20" as="geometry" />
        </mxCell>
        <mxCell id="gvLBgJIyw-T1FRaVCze4-33" value="" style="edgeStyle=orthogonalEdgeStyle;rounded=0;orthogonalLoop=1;jettySize=auto;html=1;endArrow=none;startFill=0;dashed=1;" edge="1" parent="1" source="s-hoPEAsMdMOdURxk7sw-46" target="gvLBgJIyw-T1FRaVCze4-32">
          <mxGeometry relative="1" as="geometry">
            <mxPoint x="295" y="280" as="sourcePoint" />
            <mxPoint x="295" y="720" as="targetPoint" />
          </mxGeometry>
        </mxCell>
        <mxCell id="gvLBgJIyw-T1FRaVCze4-32" value="" style="rounded=0;whiteSpace=wrap;html=1;" vertex="1" parent="1">
          <mxGeometry x="292.5" y="564" width="5" height="20" as="geometry" />
        </mxCell>
      </root>
    </mxGraphModel>
  </diagram>
</mxfile>
